<svg xmlns="http://www.w3.org/2000/svg" width="30" height="30" viewBox="0 0 30 30"><path d="M28.359,0H1.641A1.576,1.576,0,0,0,.488.488,1.621,1.621,0,0,0,0,1.68v26.68a1.576,1.576,0,0,0,.488,1.152A1.576,1.576,0,0,0,1.641,30H16.016V18.4H12.109V13.867h3.906v-3.32a5.885,5.885,0,0,1,1.621-4.473,5.841,5.841,0,0,1,4.2-1.543q1.25,0,2.227.078t1.289.117V8.789H22.93q-1.406,0-1.816.605a2.77,2.77,0,0,0-.41,1.582v2.891H25.2L24.609,18.4H20.7V30h7.656A1.668,1.668,0,0,0,30,28.359V1.68A1.621,1.621,0,0,0,29.512.488,1.576,1.576,0,0,0,28.359,0Z" fill="#fff"/></svg>