<svg xmlns="http://www.w3.org/2000/svg" width="30.745" height="30" viewBox="0 0 30.745 30"><path d="M15.373,0A14.96,14.96,0,0,0,9.4,1.2,15.224,15.224,0,0,0,1.2,9.4,14.96,14.96,0,0,0,0,15.373a15.1,15.1,0,0,0,.781,4.864,15.465,15.465,0,0,0,2.177,4.218,15.044,15.044,0,0,0,3.348,3.318,15.575,15.575,0,0,0,4.2,2.192.792.792,0,0,0,1.051-.751V28.133q0-.811-.03-1.771-3.183.691-4.173-.555L6.365,24.56a4.312,4.312,0,0,0-1.126-1.8l-.585-.45q-1.051-.721-.465-.826l.585-.105a2.261,2.261,0,0,1,1.741.811l.6.751Q8.137,24.71,9.533,24.62a6.252,6.252,0,0,0,2.057-.39,4.07,4.07,0,0,1,.39-1.261,2.945,2.945,0,0,1,.6-.811,12.537,12.537,0,0,1-2.552-.51,6.466,6.466,0,0,1-2.252-1.216,5.8,5.8,0,0,1-1.591-2.237,8.965,8.965,0,0,1-.631-3.633,5.942,5.942,0,0,1,.42-2.282,6.084,6.084,0,0,1,1.171-1.831,8.688,8.688,0,0,1-.3-1.4A5.2,5.2,0,0,1,7.3,6.365L8.3,6.41a7.766,7.766,0,0,1,3.228,1.546,11.339,11.339,0,0,1,1.877-.39,16.162,16.162,0,0,1,3.933,0,11.339,11.339,0,0,1,1.877.39A7.573,7.573,0,0,1,22.428,6.41l1.021-.045a5.2,5.2,0,0,1,.45,2.687,8.688,8.688,0,0,1-.3,1.4A6.084,6.084,0,0,1,24.77,12.28a5.942,5.942,0,0,1,.42,2.282,8.965,8.965,0,0,1-.631,3.633,5.727,5.727,0,0,1-1.606,2.237,6.624,6.624,0,0,1-2.267,1.216,15.22,15.22,0,0,1-2.522.51,2.981,2.981,0,0,1,.736,1.066,4.394,4.394,0,0,1,.315,1.786q0,1.531-.015,2.687t-.015,1.516a.9.9,0,0,0,.24.585.783.783,0,0,0,.811.165,16.053,16.053,0,0,0,4.233-2.192,15.333,15.333,0,0,0,5.494-7.536,15.1,15.1,0,0,0,.781-4.864,14.96,14.96,0,0,0-1.2-5.975,15.224,15.224,0,0,0-8.2-8.2A14.96,14.96,0,0,0,15.373,0Z" fill="#fff"/></svg>