<svg xmlns="http://www.w3.org/2000/svg" viewBox="0 0 800 452.7"><defs><style>.cls-1{fill:#fff;}.cls-2{fill:#748d9b;}</style></defs><title>Bare_logo</title><g id="レイヤー_2" data-name="レイヤー 2"><g id="レイヤー_1-2" data-name="レイヤー 1"><rect class="cls-1" width="800" height="452.7"/><path class="cls-2" d="M199.05,191.17a2.13,2.13,0,0,0-3.12,2.24,70.07,70.07,0,0,1,1.18,12.89q0,3.15-.27,6.23h0a4.53,4.53,0,0,1-.07.74,4.12,4.12,0,0,1-8.15-.32,3,3,0,0,1,0-.42v0a132.49,132.49,0,0,0-4.12-27.2l-.08,0c-.21-.94-.43-1.88-.68-2.8a.32.32,0,0,1,0-.09c-.09-.33-.18-.65-.28-1a50.66,50.66,0,0,0-32.95-33.66,2.12,2.12,0,0,0-2.75,2.36,50.66,50.66,0,0,1-17.44,47.1c-.17.15-.35.3-.52.43a61.3,61.3,0,0,0-21.7,41.08q-.28,3-.29,6A61.34,61.34,0,0,0,140.46,299a2.13,2.13,0,0,0,2.77-3A31,31,0,0,1,138,278.66c0-1,0-1.88.12-2.81a31.16,31.16,0,0,1,43.68-25.66,29.56,29.56,0,0,1,2.86,1.46A31.17,31.17,0,0,1,195,296a2.12,2.12,0,0,0,2.77,3,61.38,61.38,0,0,0,1.26-107.85Z"/><path class="cls-2" d="M379.28,284a42.5,42.5,0,0,0,5.36-21.4c0-9.17-2.46-16.94-7.31-23.12S365.72,229,357.28,226.7l-3.87-1.06,3.67-1.61a33.4,33.4,0,0,0,14.45-12,33.23,33.23,0,0,0,.45-35.61,34.94,34.94,0,0,0-13.48-12.2A39.64,39.64,0,0,0,340,159.76h-46.1a4.25,4.25,0,0,0-3.08,1.12,4,4,0,0,0-1.15,3.1V299.65a3.45,3.45,0,0,0,1.38,3.08,7.72,7.72,0,0,0,4.54,1.15h47.23a44,44,0,0,0,21.61-5.28A38.1,38.1,0,0,0,379.28,284ZM298.09,168.21H340c8.46,0,15.39,2.27,20.59,6.74s7.92,10.91,7.92,19c0,8.26-2.67,15.06-8,20.21h0c-5.27,5.14-12.19,7.74-20.56,7.74H298.09Zm61.85,123a34.78,34.78,0,0,1-17.16,4.23H298.09V230.31h44.69a35.47,35.47,0,0,1,17.15,4.12A30.68,30.68,0,0,1,371.85,246a32.32,32.32,0,0,1,4.34,16.62,33.3,33.3,0,0,1-4.33,16.89A31.21,31.21,0,0,1,359.94,291.2Z"/><path class="cls-2" d="M511.47,253.93a52.17,52.17,0,0,0-6.69-26.21,48.64,48.64,0,0,0-18.38-18.38h0a54.37,54.37,0,0,0-52.22,0,48.64,48.64,0,0,0-18.38,18.38,54.32,54.32,0,0,0,0,52.23,48.64,48.64,0,0,0,18.38,18.38A52.19,52.19,0,0,0,460.39,305a49.69,49.69,0,0,0,23.51-5.57,42.62,42.62,0,0,0,16.49-15.21L503,280v19.63a4,4,0,0,0,4.23,4.23,4.07,4.07,0,0,0,3.11-1.15,4.29,4.29,0,0,0,1.12-3.08Zm-14,22.14a40.7,40.7,0,0,1-15.3,15.59h0a44.82,44.82,0,0,1-43.57,0,41.48,41.48,0,0,1-15.39-15.58,46.31,46.31,0,0,1,0-44.3,43.35,43.35,0,0,1,59-15.67,41.41,41.41,0,0,1,15.29,15.68,47,47,0,0,1,0,44.28Z"/><path class="cls-2" d="M686.38,226.55a43.63,43.63,0,0,0-16.32-17.41,45.52,45.52,0,0,0-23.82-6.29,46.37,46.37,0,0,0-24.39,6.47,44.38,44.38,0,0,0-16.59,18.06,57.66,57.66,0,0,0-6,26.55,53.78,53.78,0,0,0,6.41,26.32,46.35,46.35,0,0,0,17.62,18.08,50.73,50.73,0,0,0,25.73,6.49,52.29,52.29,0,0,0,18.05-3.49,46.54,46.54,0,0,0,15.25-8.75,3.66,3.66,0,0,0-2.82-6.19,4.8,4.8,0,0,0-3,1.16,33,33,0,0,1-12.23,6.95,47,47,0,0,1-15.23,2.62,41.69,41.69,0,0,1-20.44-5.07A38.83,38.83,0,0,1,614,277.9a43.6,43.6,0,0,1-6-20.51l-.07-1.49H688.2a4.15,4.15,0,0,0,3-1,3.66,3.66,0,0,0,1.06-2.82A54.29,54.29,0,0,0,686.38,226.55ZM608,249l.19-1.58c1.28-11,5.44-19.91,12.37-26.63a35.65,35.65,0,0,1,25.73-10.19c10.49,0,19.31,3.43,26.2,10.19s10.81,15.71,11.71,26.68l.13,1.53Z"/><path class="cls-2" d="M546.26,303.93a4.12,4.12,0,0,1-4.12-4.12v-70a25.26,25.26,0,0,1,8.31-18.53c7.12-6.65,17.88-10,29.53-9.22a4.12,4.12,0,1,1-.56,8.23c-9.37-.64-17.88,1.92-23.34,7a16.92,16.92,0,0,0-5.69,12.51v70A4.12,4.12,0,0,1,546.26,303.93Z"/></g></g></svg>