<!-- Generator: Adobe Illustrator 23.0.4, SVG Export Plug-In  -->
<svg version="1.1" xmlns="http://www.w3.org/2000/svg" xmlns:xlink="http://www.w3.org/1999/xlink" x="0px" y="0px" width="323.9px"
	 height="183.3px" viewBox="0 0 323.9 183.3" style="enable-background:new 0 0 323.9 183.3;" xml:space="preserve">
<style type="text/css">
	.st0{fill:#FFFFFF;}
	.st1{fill:#3E3A39;}
	.st2{fill:#D93156;}
	.st3{fill:#F19EC2;}
	.st4{fill:#E7355C;}
	.st5{fill:#425BA8;}
	.st6{fill:#7ECEF4;}
	.st7{fill:#00AFEC;}
	.st8{fill:#FFEC3F;}
	.st9{fill:#EE7836;}
</style>
<defs>
</defs>
<g>
	<rect class="st0" width="323.9" height="183.3"/>
	<g>
		<g>
			<path class="st1" d="M141.5,125.7c1.9-3.1,3-7.4,3.1-11.1l1.8-0.1c0.1,1,0.2,2.1,0.2,3.2c0,3.5-0.4,7.5-1.3,10.3L141.5,125.7z
				 M173.2,126c2.4,0.5,4.2,0.7,5.5,0.7c3.9,0,5.8-0.9,5.8-28.2v-5.2h-14.5c-1.7,3.3-3.6,6.3-5.9,9l-1.2-0.6l-1.9,1.3h-4.6v5.3h4.2
				l1-1.2l3.2,1.7l-1.1,1.6c-0.6,15.1-1.2,20.2-8.3,20.6c-0.8-1.7-1.7-2.3-4.9-3.2l0.4-1.7c2.1,0.5,3.6,0.7,4.8,0.7
				c3.2,0,4.4-1.3,4.8-16.2H148v1.7h-3.4V84.9l3.6,1h11.7l2.1-1.7l2.7,2.1l-2.4,1.8h-5.8v5.3h2.3l2.1-1.6l2.6,2.1l-2.4,1.8h-4.6v5
				h2.3l2.1-1.7l1.9,1.6c3.4-5.1,5.5-10.9,6.7-17.1l4.3,0.7c-0.7,2.3-1.6,4.5-2.5,6.5h13.4l1.2-1.2l3.4,1.9l-1.2,1.4v5.8
				c0,27.6-1.6,31.8-9.3,32.6c-0.8-1.6-2.3-2.4-6-3.3L173.2,126z M153.2,88.2H148v5.3h5.2V88.2z M153.2,95.7H148v5h5.2V95.7z
				 M153.2,103H148v5.3h5.2V103z M148.3,125.6c0.2-1.4,0.3-3,0.3-4.5c0-2.4-0.2-4.8-0.5-6.7l1.6-0.4c0.9,2.7,1.8,6.9,2,10
				L148.3,125.6z M153.5,122.8c-0.1-2.7-0.9-6.4-1.9-9.1l1.4-0.6c1.2,2.2,2.6,5.6,3.2,8L153.5,122.8z M157.7,119.9
				c-0.5-2.4-1.6-5.3-2.7-7.3l1.2-0.7c1.3,1.7,3,4.2,3.8,6.1L157.7,119.9z M175.9,119.9v-2.1h-5.8v3.1h-3.3V99.3l3.5,1h5.8l1.2-1.2
				l3,1.6l-1.1,1.2v18H175.9z M175.9,102.8h-5.8v12.5h5.8V102.8z"/>
			<path class="st1" d="M211.9,113.5c-4.8,3.4-11.1,7.1-16.6,9.7l-2-3.8c2.4-0.7,5.1-1.7,7.6-2.7V99.9h-5.9l-0.9-2.5h6.8V84h3.7
				v13.4h2.3l2-1.6l2.8,2.1l-2.4,2h-4.7V115c2.4-1.1,4.7-2.3,6.7-3.5L211.9,113.5z M225.9,126.3c2.3,0.4,3.9,0.7,5.1,0.7
				c2.4,0,3-0.9,3.5-3c0.6-2.4,0.9-6.4,1-10.2h-3c-2.5,7.9-8,13.5-15.7,17.1l-1.7-1.5c6.9-3.8,11.3-8.9,13.5-15.6h-3.7
				c-3,6.3-8,10.7-15.1,13.9l-1.6-1.5c6.2-3.3,10.6-7.5,13-12.4h-3.8c-2.7,3-6,5.4-9.3,7.1l-1.6-1.3c5.2-3.3,9-7.3,11.4-12.1h-8
				l-0.9-2.4h28.2l2.2-1.7l2.9,2.2l-2.6,1.9h-17.5c-0.8,1.4-1.8,2.7-2.8,4h16.3l1.1-1.2l3.5,1.8l-1.2,1.3c0,3.2-0.4,8.1-1,11.4
				c-0.8,4-2.6,5.9-6.9,6.5c-0.8-1.5-2.3-2.2-5.7-3L225.9,126.3z M232.9,102.5v-1.3h-15.5v1.5h-3.7V84.8l4.1,1.1h15.2l1.4-1.3
				l3.4,1.7l-1.2,1.4v14.8H232.9z M232.9,88.4h-15.5v3.9h15.5V88.4z M232.9,94.6h-15.5v4h15.5V94.6z"/>
			<path class="st1" d="M293.8,108.1c-1.7,0-3.4,0.6-4.4,1.5c-8.9-4-14.6-10.6-18-20.3c-0.6,0.5-1.2,1-1.3,1.3
				c-1.9,5-4.6,9.6-8.5,13.7h12.9l2.3-1.7l3,2.3l-2.6,1.9h-15.7l-0.7-1.7c-3.6,3.5-8.1,6.6-13.9,9l-1.5-1.7
				C257,106.7,263,99,266,90.3h-8.9l-1.3,1.9c2.2,0.9,4.6,2.1,6.4,3.5l-2.5,3.2c-1-2-2.9-3.9-4.9-5.4c-1,1.2-2.1,2.4-3.3,3.5
				c2.4,1.3,4.5,2.8,6.1,4.4l-2.8,3.1c-1-2.4-2.5-4.6-4.5-6.4c-1,0.9-2.1,1.8-3.3,2.6l-1.6-1.2c5.5-4.7,9.2-10.2,11-16l4.2,1
				c-0.6,1.2-1.2,2.4-1.9,3.5h8.1l1.2-1.2l3.2,2c-0.5-1.5-0.9-3-1.3-4.6l2-0.5c1.8,6,4.2,11.2,8.1,15.2c2.7-2.7,5.1-6,6.3-8.6h-9.7
				l-1-2.4h11.8l1.5-1.1l4,3l-1.8,1c-2.9,3.9-5.9,7.1-9.4,9.6c3.3,2.8,7.5,4.9,13.2,6l-0.7,1.8H293.8z M246.5,127.5
				c5.2-2.7,10-6.5,13.2-10.6l4,2.4c-4.4,3.9-9.9,7.4-15.7,9.7L246.5,127.5z M286.9,114.6H272v9.9l0.1,3v0.1c0,1-0.6,3.3-4.4,3.7
				c-1.3-1.8-3.2-2.4-6.9-2.9v-1.9c1.8,0.1,3.2,0.2,4.3,0.2c2.7,0,3.1-0.4,3.1-1.2v-10.9H252l-0.9-2.5h33.1l2.4-1.7l3.1,2.2
				L286.9,114.6z M288.4,128.7c-3-3.5-7.4-7-12.1-9.5l1.4-1.5c5.1,1.9,10,4.3,13.9,7.2L288.4,128.7z"/>
		</g>
		<g>
			<polygon class="st2" points="91.5,69 80,49.1 68.5,69 			"/>
			<polygon class="st3" points="114.5,69 103,49.1 91.5,69 			"/>
			<polygon class="st4" points="91.5,69 103,49.1 80,49.1 			"/>
			<polygon class="st2" points="76.9,134.2 88.4,114.3 65.4,114.3 			"/>
			<polygon class="st3" points="53.9,134.2 65.4,114.3 42.4,114.3 			"/>
			<polygon class="st4" points="76.9,134.2 65.4,114.3 53.9,134.2 			"/>
			<polygon class="st5" points="65.4,69 53.9,49.1 42.4,69 			"/>
			<polygon class="st6" points="65.4,69 76.9,49.1 53.9,49.1 			"/>
			<polygon class="st7" points="53.9,88.9 65.4,69 42.4,69 			"/>
			<polygon class="st5" points="103,134.2 114.5,114.3 91.5,114.3 			"/>
			<polygon class="st6" points="103,134.2 91.5,114.3 80,134.2 			"/>
			<polygon class="st7" points="114.5,114.3 103,94.4 91.5,114.3 			"/>
			<polygon class="st8" points="104.6,91.7 116.1,71.7 93.1,71.7 			"/>
			<polygon class="st9" points="127.6,91.7 116.1,71.7 104.6,91.7 			"/>
			<polygon class="st9" points="116.1,111.6 127.6,91.7 104.6,91.7 			"/>
			<polygon class="st8" points="63.8,111.6 52.3,91.7 40.8,111.6 			"/>
			<polygon class="st9" points="52.3,91.7 40.8,71.7 29.3,91.7 			"/>
			<polygon class="st9" points="40.8,111.6 52.3,91.7 29.3,91.7 			"/>
		</g>
		<g>
			<path class="st1" d="M154.4,59.5h-3.5c0.7,0.5,1.4,1.1,1.9,1.7l-2.1,0.8c-0.2-0.8-0.6-1.8-1.1-2.6h-1c-0.9,1.2-2.1,2.2-3.3,3.1
				l-0.9-0.6c1.8-1.6,3-3.6,3.6-5.5l2.3,0.5c-0.2,0.5-0.5,0.9-0.8,1.3h3.7l1.1-0.8l1.4,1.1L154.4,59.5z M163.7,70.5
				c-0.4,4.2-1.4,5.1-3.7,5.4c-0.4-0.8-1-1.1-2.8-1.5l0.2-0.9c1.1,0.2,1.9,0.3,2.4,0.3c1,0,1.5-0.4,1.7-3.1h-5.8v6.4h-2.1
				c0-0.7,0.1-3.7,0.2-5.2c-2.7,2.7-6.6,4.1-8.8,4.8l-0.7-0.9c3.4-1.2,6.2-3,8.1-5.1h-3.8l-0.1,0.8h-2.1l1.2-6.1l1.9,0.5h4.3v-2.2
				h-6.9l-0.5-1.2h14.2l0.7-0.6l1.8,0.8l-0.6,0.6v4.4h-2v-0.7h-4.7v2.3h6l0.6-0.6l1.9,1L163.7,70.5z M153.7,67.2h-4.5l-0.4,2.3h4.9
				V67.2z M163.7,59.5h-4c0.7,0.5,1.4,1.2,1.9,1.7l-2,0.8c-0.2-0.8-0.6-1.8-1.1-2.6h-1.1c-0.8,1-1.7,2-2.6,2.7l-0.9-0.5
				c1.4-1.6,2.5-3.5,2.9-5.2L159,57c-0.2,0.4-0.5,0.9-0.8,1.3h4.2l1.1-0.9l1.4,1.1L163.7,59.5z M160.5,63.8h-4.7V66h4.7V63.8z"/>
			<path class="st1" d="M174.4,59.4c-3.4,0-4.4,3.6-4.5,7.2c0.3-0.4,1.5-2,4.2-2c4,0,5.5,3,5.5,5.7c0,3.3-2.3,6.1-5.9,6.1
				c-4.7,0-6.2-4.1-6.2-8c0-7,2.6-10.5,6.7-10.5c2.5,0,4.7,1.3,4.7,3.1c0,0.9-0.5,1.9-1.6,1.9c-1.5,0-1.5-1.4-1.5-1.6
				c0-0.4,0.1-0.8,0.5-1.3C175.9,59.5,174.8,59.4,174.4,59.4z M177,70.4c0-2.1-0.9-4.2-3.2-4.2c-2.1,0-3.7,1.7-3.7,4.4
				c0,2,1,4.4,3.6,4.4C176.2,74.9,177,72.6,177,70.4L177,70.4z"/>
			<path class="st1" d="M187.4,69.7c-3.5,0-5.4-2.5-5.4-5.7c0-2.9,2-6.1,5.8-6.1c4.6,0,6,4,6,8.5c0,2.6-0.4,4.4-1.1,6.1
				c-1.1,2.7-3.5,3.8-5.7,3.8c-2.4,0-4.4-1.3-4.4-3.1c0-1,0.7-1.8,1.6-1.8c0.5,0,1.6,0.3,1.6,1.6c0,0.1,0,0.9-0.6,1.3
				c0.5,0.4,1.1,0.6,1.8,0.6c1.4,0,3-0.9,3.7-2.8c0.4-1.2,0.8-2.7,0.8-4.5C191.2,67.9,190.1,69.7,187.4,69.7z M184.3,63.9
				c0,2.1,1.1,4.2,3.3,4.2c2.2,0,3.5-1.7,3.5-4.4c0-1-0.3-4.3-3.4-4.4C185.2,59.3,184.3,61.7,184.3,63.9z"/>
			<path class="st1" d="M213.8,77.1v-1.3h-13.6v1.3h-2V57.8l2.2,0.7h13.6l0.7-0.7l1.9,0.9l-0.6,0.7v17.7H213.8z M213.8,59.8h-13.6
				v14.6h13.6V59.8z M208.9,71.9v-1.1h-3.8V72h-1.9v-9.7l2.1,0.6h3.8l0.6-0.7l1.7,0.9l-0.6,0.6v8.1H208.9z M208.9,64.3h-3.8v5.3h3.8
				V64.3z"/>
		</g>
	</g>
</g>
</svg>
