<?xml version="1.0" standalone="no"?>
<!DOCTYPE svg PUBLIC "-//W3C//DTD SVG 20010904//EN"
 "http://www.w3.org/TR/2001/REC-SVG-20010904/DTD/svg10.dtd">
<svg version="1.0" xmlns="http://www.w3.org/2000/svg"
 width="574.000000pt" height="574.000000pt" viewBox="0 0 574.000000 574.000000"
 preserveAspectRatio="xMidYMid meet">
<metadata>
Created by potrace 1.11, written by Peter Selinger 2001-2013
</metadata>
<g transform="translate(0.000000,574.000000) scale(0.100000,-0.100000)"
fill="#000000" stroke="none">
<path d="M0 2870 l0 -2870 2870 0 2870 0 0 2870 0 2870 -2870 0 -2870 0 0
-2870z m1731 1776 c9 -4 480 -536 1045 -1182 l1029 -1175 5 1103 c4 957 7
1107 20 1133 24 48 77 56 345 53 253 -4 276 -9 295 -61 14 -41 14 -3335 0
-3372 -17 -46 -60 -55 -259 -55 l-180 0 -33 29 c-18 16 -487 549 -1043 1184
l-1010 1154 -5 -1111 c-4 -815 -8 -1118 -17 -1137 -21 -48 -56 -54 -323 -54
-273 1 -292 4 -315 60 -22 51 -22 3328 -1 3379 17 41 24 45 84 56 54 10 339 6
363 -4z"/>
</g>
</svg>
