<svg xmlns="http://www.w3.org/2000/svg" width="36.893" height="30" viewBox="0 0 36.893 30"><path d="M33.133,7.48V8.46a21.924,21.924,0,0,1-1.41,7.6,21.782,21.782,0,0,1-4.132,6.932,21.252,21.252,0,0,1-6.736,5.052A20.877,20.877,0,0,1,11.593,30a20.854,20.854,0,0,1-6.149-.9A21.988,21.988,0,0,1,0,26.593l.881.078q.45.039.92.039a14.777,14.777,0,0,0,5.052-.862A15.653,15.653,0,0,0,11.2,23.46a7.5,7.5,0,0,1-7.05-5.248,3.609,3.609,0,0,0,.685.1q.372.02.725.02A8.877,8.877,0,0,0,6.58,18.27a7.649,7.649,0,0,0,.979-.176A7.567,7.567,0,0,1,3.231,15.47a7.267,7.267,0,0,1-1.743-4.817v-.078a8.611,8.611,0,0,0,1.625.646,7.587,7.587,0,0,0,1.782.294A7.57,7.57,0,0,1,2.448,8.832a7.364,7.364,0,0,1-.92-3.623A7.307,7.307,0,0,1,1.8,3.192,7.043,7.043,0,0,1,2.585,1.41,19.51,19.51,0,0,0,5.7,4.523,23.352,23.352,0,0,0,9.419,6.952,20.873,20.873,0,0,0,13.61,8.6a21.194,21.194,0,0,0,4.563.725,4.985,4.985,0,0,1-.157-.862q-.039-.431-.039-.862a7.518,7.518,0,0,1,.587-2.957,7.332,7.332,0,0,1,1.625-2.409A8.075,8.075,0,0,1,22.6.607,7.172,7.172,0,0,1,25.535,0,7.376,7.376,0,0,1,28.61.646a7.532,7.532,0,0,1,2.448,1.743,13.732,13.732,0,0,0,2.507-.7,17.068,17.068,0,0,0,2.311-1.1,7.627,7.627,0,0,1-1.292,2.369,7.59,7.59,0,0,1-2.037,1.782,14.3,14.3,0,0,0,2.232-.411,13.165,13.165,0,0,0,2.115-.764,14.721,14.721,0,0,1-1.7,2.134A14.687,14.687,0,0,1,33.133,7.48Z" fill="#fff"/></svg>